<svg width="467" height="415" viewBox="0 0 467 415" fill="none" xmlns="http://www.w3.org/2000/svg">
<mask id="mask0_3_19" style="mask-type:luminance" maskUnits="userSpaceOnUse" x="0" y="0" width="467" height="415">
<path d="M467 0.941895H0V414.22H467V0.941895Z" fill="white"/>
</mask>
<g mask="url(#mask0_3_19)">
<path d="M161.761 301.707L125.561 358.596C113.579 377.2 97.3999 387.599 80.5564 387.52C63.7129 387.441 47.5735 376.89 35.6631 358.173C23.7528 339.455 17.039 314.09 16.9883 287.618C16.9374 261.147 23.5536 235.719 35.3918 216.889L89.4604 131.916C89.4323 130.419 89.4131 128.919 89.4131 127.415C89.4079 114.76 90.4416 102.157 92.4887 89.9186L23.5511 198.26C8.54057 222.019 0.133532 254.16 0.171576 287.641C0.209621 321.123 8.68965 353.216 23.7541 376.89C38.8186 400.565 59.2395 413.892 80.5437 413.95C101.848 414.01 122.299 400.798 137.416 377.207L173.615 320.318L161.761 301.707Z" fill="url(#paint0_linear_3_19)"/>
<path d="M284.508 414.22C273.935 414.248 263.463 410.993 253.693 404.641C243.923 398.292 235.047 388.969 227.577 377.212L125.561 216.885C110.496 193.143 102.044 160.976 102.059 127.447C102.074 93.9189 110.556 61.7704 125.642 38.0625C140.728 14.3546 161.184 1.02587 182.519 1.00342C203.852 0.980962 224.321 14.2667 239.426 37.9427L341.442 198.269C352.707 215.957 360.381 238.5 363.49 263.047C366.601 287.591 365.006 313.035 358.912 336.156C352.815 359.277 342.492 379.035 329.248 392.933C316.003 406.829 300.433 414.236 284.508 414.22ZM239.426 358.596C251.413 377.163 267.584 387.527 284.415 387.432C301.244 387.337 317.367 376.786 329.268 358.082C341.168 339.381 347.882 314.041 347.942 287.593C348.003 261.142 341.408 235.726 329.594 216.889L227.578 56.563C221.673 47.1473 214.641 39.6611 206.887 34.5356C199.133 29.41 190.81 26.7466 182.399 26.6987C173.986 26.6506 165.651 29.2192 157.874 34.2561C150.097 39.293 143.03 46.6991 137.082 56.0471C131.134 65.3951 126.422 76.5006 123.217 88.7236C120.012 100.947 118.377 114.045 118.408 127.265C118.438 140.486 120.133 153.566 123.394 165.752C126.656 177.938 131.419 188.989 137.411 198.269L239.426 358.596Z" fill="url(#paint1_linear_3_19)"/>
<path d="M329.592 37.9423L293.394 94.8307L305.242 113.451L341.44 56.5626C353.428 37.996 369.598 27.6306 386.429 27.7263C403.258 27.8224 419.381 38.3719 431.283 57.075C443.182 75.7778 449.896 101.117 449.956 127.566C450.017 154.016 443.422 179.431 431.608 198.269L377.498 283.308C377.772 297.485 376.739 311.651 374.434 325.363L443.456 216.889C458.556 193.159 467.038 160.975 467.038 127.416C467.038 93.8566 458.556 61.6723 443.456 37.9423C428.356 14.2125 407.878 0.881233 386.523 0.881233C365.171 0.881233 344.692 14.2125 329.592 37.9423Z" fill="url(#paint2_linear_3_19)"/>
</g>
<defs>
<linearGradient id="paint0_linear_3_19" x1="-4.68496" y1="291.466" x2="498.891" y2="232.239" gradientUnits="userSpaceOnUse">
<stop stop-color="#E7267A"/>
<stop offset="0.502" stop-color="#64328A"/>
<stop offset="1" stop-color="#2B4B9B"/>
</linearGradient>
<linearGradient id="paint1_linear_3_19" x1="-2.60795" y1="304.718" x2="504.276" y2="220.328" gradientUnits="userSpaceOnUse">
<stop stop-color="#E7267A"/>
<stop offset="0.502" stop-color="#64328A"/>
<stop offset="1" stop-color="#2B4B9B"/>
</linearGradient>
<linearGradient id="paint2_linear_3_19" x1="-0.75852" y1="317.575" x2="503.572" y2="258.294" gradientUnits="userSpaceOnUse">
<stop stop-color="#F2E9ED"/>
<stop offset="0.502" stop-color="#64328A"/>
<stop offset="1" stop-color="#2B4B9B"/>
</linearGradient>
</defs>
</svg>
